<?xml version="1.0" encoding="UTF-8" standalone="no"?>
<svg
   version="1.1"
   viewBox="0 -200 32 32"
   id="svg13"
   sodipodi:docname="favicon_32x32.svg"
   width="32"
   height="32"
   inkscape:version="1.2.2 (b0a8486541, 2022-12-01)"
   xmlns:inkscape="http://www.inkscape.org/namespaces/inkscape"
   xmlns:sodipodi="http://sodipodi.sourceforge.net/DTD/sodipodi-0.dtd"
   xmlns="http://www.w3.org/2000/svg"
   xmlns:svg="http://www.w3.org/2000/svg">
  <sodipodi:namedview
     id="namedview15"
     pagecolor="#ffffff"
     bordercolor="#000000"
     borderopacity="0.25"
     inkscape:showpageshadow="2"
     inkscape:pageopacity="0.0"
     inkscape:pagecheckerboard="0"
     inkscape:deskcolor="#d1d1d1"
     showgrid="false"
     inkscape:zoom="6.968"
     inkscape:cx="89.121699"
     inkscape:cy="53.028129"
     inkscape:window-width="1920"
     inkscape:window-height="1008"
     inkscape:window-x="0"
     inkscape:window-y="0"
     inkscape:window-maximized="1"
     inkscape:current-layer="svg13" />
  <defs
     id="defs4">
    <style
       id="style2">
      .cls-1 {
        fill: #00476A;
      }
    </style>
  </defs>
  <g
     id="g11"
     transform="matrix(0.04026272,0,0,0.04026271,-5.0075979,-197.30025)"
     inkscape:transform-center-x="-10.338841"
     inkscape:transform-center-y="24.671949">
    <g
       id="imagotipo">
      <path
         class="cls-1"
         d="m 502.79,451.7 c -4.52,-5.26 -12.01,-9.54 -17.47,-13.92 0,0 -26.11,49.53 -33.79,54.64 l -7.19,2.52 c 18.7,-5.8 37.43,-12.07 55.85,-18.83 0.56,-3.71 1.12,-7.43 1.69,-11.14 0.48,-3.15 3.18,-10.62 0.91,-13.26 z"
         id="path6" />
      <path
         class="cls-1"
         d="M 886.25,516.06 569.78,77.34 C 561.64,66.05 545.05,65.45 536.1,76.11 l -118.43,141.16 -12,-19.35 c -5.21,-8.41 -15.84,-8.86 -21.56,-0.92 L 148.43,523.77 c -7.46,10.35 -1.14,26.13 10.47,26.13 h 44.36 c 43.08,-6.79 130.36,-22.34 221.34,-49.02 l 28.47,-48.81 14.85,-45.95 c 0,0 4.61,-21.96 16.89,-42.89 2.5,-4.26 7.69,-8.31 11.82,-10.8 18.02,-10.87 25.44,13.46 28.11,26.12 0,0 -1.67,5.11 9.92,9.7 7.42,2.79 14.86,5.56 22.27,8.37 3,1.14 9.5,2.6 10.6,5.73 0.6,1.69 0.51,4.18 0.33,5.95 -0.27,2.62 -1.33,5.01 -3.16,6.93 -3.41,3.58 -12.99,-0.27 -17.16,-1.12 -5.01,-1.03 -9.99,-2.21 -14.91,-3.61 -9.07,-2.58 -20.17,-5.72 -26.84,-12.81 l -6.14,13.53 c 3.28,3.34 6.55,6.67 9.83,10.01 2.6,2.65 5.2,5.29 7.8,7.94 1.62,1.65 5.99,4.7 6.67,6.83 0.2,0.63 0.14,1.31 0.08,1.97 -0.97,10.08 -2.02,20.14 -3.05,30.21 23.69,-9.33 46.61,-19.52 67.99,-30.61 14.21,-7.37 28.2,-19.83 36.21,-33.66 6.88,-11.87 9.52,-24.91 6.05,-38.35 -6.43,-24.92 -36.76,-36.71 -37.15,-64.3 -0.41,-29.18 31.2,-45.13 54.63,-53.66 -1.99,0.72 -4.54,6.13 -5.58,7.77 -7.67,12.14 -13.06,26.38 -9.76,40.82 3.15,13.81 12.54,25.45 22.61,34.99 15.76,14.94 31.8,29.69 37.36,51.58 2.59,10.22 2.35,20.95 -1.08,30.94 -1.02,2.96 -2.4,5.7 -3.72,8.53 0,0 -32.47,69.67 -129,127.65 h 309.38 c 17.41,0 27.51,-19.72 17.32,-33.85 z m -412.98,-138.82 -9.69,27.57 c -1.28,3.65 -5.59,5.48 -9.62,4.07 l -61.81,-21.61 c -4.03,-1.41 -6.25,-5.51 -4.97,-9.17 l 9.69,-27.57 c 1.28,-3.65 5.59,-5.48 9.62,-4.07 l 61.81,21.61 c 4.03,1.41 6.25,5.51 4.97,9.17 z m 17.89,-46.34 -9.69,27.57 c -1.28,3.65 -5.49,5.51 -9.4,4.14 l -62.88,-21.98 c -3.91,-1.37 -6.04,-5.44 -4.75,-9.09 l 9.69,-27.57 c 1.28,-3.65 5.49,-5.51 9.4,-4.14 l 62.88,21.98 c 3.91,1.37 6.04,5.44 4.75,9.09 z m 13.78,-39.51 -7.1,20.21 c -1.28,3.66 -5.73,5.43 -9.92,3.96 l -47.35,-16.55 c -4.19,-1.47 -6.55,-5.62 -5.27,-9.27 l 7.1,-20.21 c 1.28,-3.65 5.73,-5.43 9.92,-3.96 l 47.35,16.55 c 4.19,1.47 6.55,5.62 5.27,9.27 z m 25.22,58.05 c -11.66,0 -21.12,-9.43 -21.12,-21.06 0,-11.63 9.46,-21.06 21.12,-21.06 11.66,0 21.12,9.43 21.12,21.06 0,11.63 -9.46,21.06 -21.12,21.06 z"
         id="path8" />
    </g>
  </g>
</svg>
