<?xml version="1.0" encoding="UTF-8"?>
<svg xmlns="http://www.w3.org/2000/svg" version="1.1" viewBox="0 0 2028.26 608.37">
  <defs>
    <style>
      .cls-1, .cls-2 {
        fill: #FFFFFF;
      }

      .cls-2 {
        stroke: #FFFFFF;
        stroke-miterlimit: 10;
        stroke-width: 3px;
      }
    </style>
  </defs>
  <!-- Generator: Adobe Illustrator 28.7.8, SVG Export Plug-In . SVG Version: 1.2.0 Build 200)  -->
  <g>
    <g id="Capa_1">
      <g>
        <path class="cls-2" d="M879.67,409.36v-150.24h50.87c21.46,0,43.14,8.37,43.14,29.4,0,15.67-12.02,25.54-25.76,30.05,15.02,1.07,35.41,15.02,35.41,42.28,0,31.12-26.4,48.51-54.73,48.51h-48.94ZM888.9,316.64h43.78c18.24,0,30.69-11.8,30.69-28.76s-13.31-25.54-32.84-25.54h-41.64v54.3ZM888.9,406.14h40.56c24.04,0,44.21-18.03,44.21-44.21,0-22.75-15.02-42.07-40.56-42.07h-44.21v86.28Z"/>
        <path class="cls-2" d="M1060.6,294.96c36.49,0,59.67,25.75,59.67,57.95s-23.18,57.95-59.67,57.95-60.1-25.75-60.1-57.95,23.18-57.95,60.1-57.95ZM1060.6,407.64c30.48,0,50.87-24.47,50.87-54.73s-20.39-54.73-50.87-54.73-51.08,24.47-51.08,54.73,20.17,54.73,51.08,54.73Z"/>
        <path class="cls-2" d="M1140.66,409.36v-150.24h9.01v91.86l66.11-58.16h4.51l-44.21,39.92,56.66,76.62h-10.3l-53.23-70.4-19.53,17.6v52.8h-9.01Z"/>
        <path class="cls-2" d="M1249.9,409.36v-150.24h9.01v91.86l66.11-58.16h4.51l-44.21,39.92,56.66,76.62h-10.3l-53.23-70.4-19.53,17.6v52.8h-9.01Z"/>
        <path class="cls-2" d="M1448,294.32v115.04h-8.8v-30.69c-6.44,17.17-22.96,32.84-45.93,32.84-28.76,0-50.22-24.47-50.22-57.09,0-35.63,25.76-62.24,55.16-62.24,22.75,0,35.63,15.88,40.99,29.4v-27.26h8.8ZM1439.2,334.45c0-9.87-13.74-38.2-40.14-38.2-24.68,0-46.57,24.68-46.57,58.17,0,30.48,18.24,52.37,42.28,52.37s44.43-23.4,44.43-43.79v-28.55Z"/>
        <path class="cls-2" d="M1480.84,345.61v63.75h-9.23v-150.24h51.94c22.11,0,44.21,12.02,44.21,40.99,0,24.9-16.31,45.5-41.64,45.5h-45.29ZM1480.84,342.39h45.07c18.67,0,31.55-17.6,31.55-41.85s-13.74-38.2-33.7-38.2h-42.93v80.06Z"/>
        <path class="cls-2" d="M1588.15,409.36v-114.61h9.01v25.97c6.87-16.74,27.04-26.4,39.71-26.4,5.58,0,7.08,1.93,7.08,4.08,0,2.36-1.5,4.94-9.23,4.94-15.24,0-37.56,10.3-37.56,29.4v76.62h-9.01Z"/>
        <path class="cls-2" d="M1702.98,294.96c36.49,0,59.67,25.75,59.67,57.95s-23.18,57.95-59.67,57.95-60.1-25.75-60.1-57.95,23.18-57.95,60.1-57.95ZM1702.98,407.64c30.48,0,50.87-24.47,50.87-54.73s-20.39-54.73-50.87-54.73-51.08,24.47-51.08,54.73,20.17,54.73,51.08,54.73Z"/>
      </g>
      <path class="cls-1" d="M502.79,451.7c-4.52-5.26-12.01-9.54-17.47-13.92,0,0-26.11,49.53-33.79,54.64l-7.19,2.52c18.7-5.8,37.43-12.07,55.85-18.83.56-3.71,1.12-7.43,1.69-11.14.48-3.15,3.18-10.62.91-13.26Z"/>
      <path class="cls-1" d="M886.25,516.06L569.78,77.34c-8.14-11.29-24.73-11.89-33.68-1.23l-118.43,141.16-12-19.35c-5.21-8.41-15.84-8.86-21.56-.92l-235.68,326.77c-7.46,10.35-1.14,26.13,10.47,26.13h44.36c43.08-6.79,130.36-22.34,221.34-49.02l28.47-48.81,14.85-45.95s4.61-21.96,16.89-42.89c2.5-4.26,7.69-8.31,11.82-10.8,18.02-10.87,25.44,13.46,28.11,26.12,0,0-1.67,5.11,9.92,9.7,7.42,2.79,14.86,5.56,22.27,8.37,3,1.14,9.5,2.6,10.6,5.73.6,1.69.51,4.18.33,5.95-.27,2.62-1.33,5.01-3.16,6.93-3.41,3.58-12.99-.27-17.16-1.12-5.01-1.03-9.99-2.21-14.91-3.61-9.07-2.58-20.17-5.72-26.84-12.81l-6.14,13.53c3.28,3.34,6.55,6.67,9.83,10.01,2.6,2.65,5.2,5.29,7.8,7.94,1.62,1.65,5.99,4.7,6.67,6.83.2.63.14,1.31.08,1.97-.97,10.08-2.02,20.14-3.05,30.21,23.69-9.33,46.61-19.52,67.99-30.61,14.21-7.37,28.2-19.83,36.21-33.66,6.88-11.87,9.52-24.91,6.05-38.35-6.43-24.92-36.76-36.71-37.15-64.3-.41-29.18,31.2-45.13,54.63-53.66-1.99.72-4.54,6.13-5.58,7.77-7.67,12.14-13.06,26.38-9.76,40.82,3.15,13.81,12.54,25.45,22.61,34.99,15.76,14.94,31.8,29.69,37.36,51.58,2.59,10.22,2.35,20.95-1.08,30.94-1.02,2.96-2.4,5.7-3.72,8.53,0,0-32.47,69.67-129,127.65h309.38c17.41,0,27.51-19.72,17.32-33.85ZM473.27,377.24l-9.69,27.57c-1.28,3.65-5.59,5.48-9.62,4.07l-61.81-21.61c-4.03-1.41-6.25-5.51-4.97-9.17l9.69-27.57c1.28-3.65,5.59-5.48,9.62-4.07l61.81,21.61c4.03,1.41,6.25,5.51,4.97,9.17ZM491.16,330.9l-9.69,27.57c-1.28,3.65-5.49,5.51-9.4,4.14l-62.88-21.98c-3.91-1.37-6.04-5.44-4.75-9.09l9.69-27.57c1.28-3.65,5.49-5.51,9.4-4.14l62.88,21.98c3.91,1.37,6.04,5.44,4.75,9.09ZM504.94,291.39l-7.1,20.21c-1.28,3.66-5.73,5.43-9.92,3.96l-47.35-16.55c-4.19-1.47-6.55-5.62-5.27-9.27l7.1-20.21c1.28-3.65,5.73-5.43,9.92-3.96l47.35,16.55c4.19,1.47,6.55,5.62,5.27,9.27ZM530.16,349.44c-11.66,0-21.12-9.43-21.12-21.06s9.46-21.06,21.12-21.06,21.12,9.43,21.12,21.06-9.46,21.06-21.12,21.06Z"/>
    </g>
  </g>
</svg>