<?xml version="1.0" encoding="UTF-8"?>
<svg xmlns="http://www.w3.org/2000/svg" version="1.1" viewBox="800 150 1000 350">
  <defs>
    <style>
      .cls-1, .cls-2 {
        fill: #FFFFFF;
      }

      .cls-2 {
        stroke: #FFFFFF;
        stroke-miterlimit: 10;
        stroke-width: 3px;
      }
    </style>
  </defs>
  <!-- Generator: Adobe Illustrator 28.7.8, SVG Export Plug-In . SVG Version: 1.2.0 Build 200)  -->
  <g>
    <g id="Capa_1">
      <g>
        <path class="cls-2" d="M879.67,409.36v-150.24h50.87c21.46,0,43.14,8.37,43.14,29.4,0,15.67-12.02,25.54-25.76,30.05,15.02,1.07,35.41,15.02,35.41,42.28,0,31.12-26.4,48.51-54.73,48.51h-48.94ZM888.9,316.64h43.78c18.24,0,30.69-11.8,30.69-28.76s-13.31-25.54-32.84-25.54h-41.64v54.3ZM888.9,406.14h40.56c24.04,0,44.21-18.03,44.21-44.21,0-22.75-15.02-42.07-40.56-42.07h-44.21v86.28Z"/>
        <path class="cls-2" d="M1060.6,294.96c36.49,0,59.67,25.75,59.67,57.95s-23.18,57.95-59.67,57.95-60.1-25.75-60.1-57.95,23.18-57.95,60.1-57.95ZM1060.6,407.64c30.48,0,50.87-24.47,50.87-54.73s-20.39-54.73-50.87-54.73-51.08,24.47-51.08,54.73,20.17,54.73,51.08,54.73Z"/>
        <path class="cls-2" d="M1140.66,409.36v-150.24h9.01v91.86l66.11-58.16h4.51l-44.21,39.92,56.66,76.62h-10.3l-53.23-70.4-19.53,17.6v52.8h-9.01Z"/>
        <path class="cls-2" d="M1249.9,409.36v-150.24h9.01v91.86l66.11-58.16h4.51l-44.21,39.92,56.66,76.62h-10.3l-53.23-70.4-19.53,17.6v52.8h-9.01Z"/>
        <path class="cls-2" d="M1448,294.32v115.04h-8.8v-30.69c-6.44,17.17-22.96,32.84-45.93,32.84-28.76,0-50.22-24.47-50.22-57.09,0-35.63,25.76-62.24,55.16-62.24,22.75,0,35.63,15.88,40.99,29.4v-27.26h8.8ZM1439.2,334.45c0-9.87-13.74-38.2-40.14-38.2-24.68,0-46.57,24.68-46.57,58.17,0,30.48,18.24,52.37,42.28,52.37s44.43-23.4,44.43-43.79v-28.55Z"/>
        <path class="cls-2" d="M1480.84,345.61v63.75h-9.23v-150.24h51.94c22.11,0,44.21,12.02,44.21,40.99,0,24.9-16.31,45.5-41.64,45.5h-45.29ZM1480.84,342.39h45.07c18.67,0,31.55-17.6,31.55-41.85s-13.74-38.2-33.7-38.2h-42.93v80.06Z"/>
        <path class="cls-2" d="M1588.15,409.36v-114.61h9.01v25.97c6.87-16.74,27.04-26.4,39.71-26.4,5.58,0,7.08,1.93,7.08,4.08,0,2.36-1.5,4.94-9.23,4.94-15.24,0-37.56,10.3-37.56,29.4v76.62h-9.01Z"/>
        <path class="cls-2" d="M1702.98,294.96c36.49,0,59.67,25.75,59.67,57.95s-23.18,57.95-59.67,57.95-60.1-25.75-60.1-57.95,23.18-57.95,60.1-57.95ZM1702.98,407.64c30.48,0,50.87-24.47,50.87-54.73s-20.39-54.73-50.87-54.73-51.08,24.47-51.08,54.73,20.17,54.73,51.08,54.73Z"/>
      </g>
    </g>
  </g>
</svg>